<svg id="Capa_1" data-name="Capa 1" xmlns="http://www.w3.org/2000/svg" viewBox="0 0 255 255"><defs><style>.cls-1{fill:#0071bc;stroke:#0071bc;stroke-miterlimit:10;}</style></defs><title>Mesa de trabajo 2</title><path class="cls-1" d="M163.21,41.36A93.24,93.24,0,0,0,40.51,89.62L62.13,99a69.64,69.64,0,0,1,129.35,4.13l21.95-8.63A92.94,92.94,0,0,0,163.21,41.36Z"/><path class="cls-1" d="M213.42,94.54a93.08,93.08,0,0,1,4.93,45l.18.08L243.27,82.8Z"/><path class="cls-1" d="M195.59,129.63a69.66,69.66,0,0,0-4.11-26.46l-29.77,11.71Z"/><path class="cls-1" d="M191.76,103.55a68.92,68.92,0,0,1,4.07,26.18l22.53,9.81A92.1,92.1,0,0,0,213.48,95Z"/><path class="cls-1" d="M91.79,213.64a93.24,93.24,0,0,0,122.71-48.26L192.87,156a69.64,69.64,0,0,1-129.35-4.13l-21.95,8.63A92.94,92.94,0,0,0,91.79,213.64Z"/><path class="cls-1" d="M41.58,160.46a93.08,93.08,0,0,1-4.93-45l-.18-.08L11.73,172.2Z"/><path class="cls-1" d="M59.41,125.37a69.66,69.66,0,0,0,4.11,26.46l29.77-11.71Z"/><path class="cls-1" d="M63.24,151.45a68.92,68.92,0,0,1-4.07-26.18l-22.53-9.81A92.1,92.1,0,0,0,41.52,160Z"/></svg>