<svg xmlns="http://www.w3.org/2000/svg" viewBox="0 0 197 197"><defs><style>.cls-1{fill:#077295;}.cls-2{fill:#0c5583;}.cls-3{fill:#fff;}</style></defs><title>Recurso 2</title><g id="Capa_2" data-name="Capa 2"><g id="Capa_1-2" data-name="Capa 1"><path class="cls-1" d="M87,91.26,124,78l23.58-40.57,48.9,50.93A98.5,98.5,0,1,0,98.5,197H99L69,167h51l19.95,20.87a98.67,98.67,0,0,0,26.13-17.72Z"/><path class="cls-2" d="M69,167l30,30a98.1,98.1,0,0,0,41-9.12L120,167Z"/><path class="cls-2" d="M124,78,87,91.26l79.08,78.9A98.22,98.22,0,0,0,197,98.5a99.64,99.64,0,0,0-.52-10.14l-48.9-50.93Z"/><path class="cls-3" d="M108.17,111.79H81.5L78.86,80a34.28,34.28,0,0,0,12,1.93q10.79,0,16.18-5.39a17.75,17.75,0,0,0,5.39-13q0-7.63-4.68-12.42T95.14,46.25A18.57,18.57,0,0,0,83.64,50q-5.09,3.87-5.09,13H37.64q1-20.25,17.91-30.53Q72.34,22.43,98.2,22.43q30.94,0,46.1,11.7t15.16,29q0,18.83-14.35,29.21T110.2,102.73Zm12,55.06H69.39v-37h50.79Z"/></g></g></svg>