<svg id="Capa_1" data-name="Capa 1" xmlns="http://www.w3.org/2000/svg" viewBox="0 0 255 255"><defs><style>.cls-1{fill:#333;stroke:#333;stroke-linecap:round;stroke-linejoin:round;stroke-width:7px;}.cls-2,.cls-4{fill:#06f;}.cls-2{stroke:#06f;}.cls-2,.cls-3{stroke-miterlimit:10;stroke-width:11px;}.cls-3,.cls-5{fill:#69f;}.cls-3{stroke:#69f;}</style></defs><title>Mesa de trabajo 7</title><rect class="cls-1" x="61.63" y="69.46" width="40.37" height="7.04"/><rect class="cls-1" x="61.63" y="96.69" width="40.37" height="7.04"/><rect class="cls-1" x="61.63" y="125.8" width="40.37" height="7.04"/><rect class="cls-1" x="120.31" y="69.46" width="30.51" height="63.37"/><path class="cls-2" d="M103.53,149.24a51.67,51.67,0,0,1-38.3-86.36l-9.48-9.48a65.06,65.06,0,0,0,91.94,91.94l-9.48-9.48A51.48,51.48,0,0,1,103.53,149.24Z"/><path class="cls-3" d="M168.6,97.57A65.06,65.06,0,0,0,55.76,53.41l9.48,9.48a51.67,51.67,0,1,1,73,73l9.48,9.48A64.89,64.89,0,0,0,168.6,97.57Z"/><path class="cls-4" d="M152.27,158.35,149,161.64a9.13,9.13,0,0,0,0,12.83l45.2,45.39a9,9,0,0,0,12.78,0l3.27-3.29Z"/><path class="cls-5" d="M213.9,212.9a9.13,9.13,0,0,0,0-12.83l-45.2-45.39a9,9,0,0,0-12.78,0l-3.65,3.66,58,58.22Z"/></svg>