<svg id="Capa_1" data-name="Capa 1" xmlns="http://www.w3.org/2000/svg" viewBox="0 0 255 255"><defs><style>.cls-1,.cls-4{fill:none;}.cls-1{stroke:#06c;stroke-miterlimit:10;stroke-width:3px;}.cls-2{fill:#0071bc;}.cls-3{fill:#333;stroke:#333;stroke-linecap:round;stroke-linejoin:round;stroke-width:7px;}.cls-5{fill:#ce3641;}</style></defs><title>Mesa de trabajo 3</title><path class="cls-1" d="M184.52,209.41H47.33a11.54,11.54,0,0,1-11.68-11.33V32.85A11.54,11.54,0,0,1,47.33,21.52h109l39.89,34V198.08A11.54,11.54,0,0,1,184.52,209.41Z"/><path class="cls-2" d="M168,58.34c-14.59,0-21.4,1.89-21.4-14.16V22.46h8.76l39.89,32.1v3.78Z"/><rect class="cls-3" x="50.6" y="36.28" width="85.19" height="24.07"/><rect class="cls-3" x="50.6" y="78.36" width="125.92" height="24.07"/><polygon class="cls-4" points="166.82 189.59 188.12 210.88 194.67 204.33 201.76 197.24 176.52 171.99 176.52 189.59 166.82 189.59"/><polygon class="cls-4" points="152.03 147.51 124.74 147.51 142.76 165.52 176.52 165.52 176.52 166.47 201.76 141.22 188.12 127.58 176.52 139.18 176.52 147.51 168.18 147.51 160.11 155.58 152.03 147.51"/><polygon class="cls-4" points="118.45 197.24 132.1 210.88 153.39 189.59 126.1 189.59 118.45 197.24"/><path class="cls-3" d="M50.6,120.44v24.07H97.22a66.22,66.22,0,0,1,14.67-24.07Z"/><path class="cls-3" d="M93.7,162.52H50.6v24.07H96.78A66.74,66.74,0,0,1,93.7,162.52Z"/><path class="cls-5" d="M198.77,113.57a70.25,70.25,0,0,0-99.34,0l-.28.29c-.33.34-.64.69-1,1a70.23,70.23,0,0,0,100.3,98.3l.29-.28A70.25,70.25,0,0,0,198.77,113.57Zm-32.34,52.59,26.66,26.66-7.49,7.49-6.92,6.92-22.48-22.48-7.09-7.09L142,184.74l-22.48,22.48-14.41-14.41,8.08-8.08,21.5-21.5-3.91-3.91-19-19-6.64-6.64,6.92-6.92,7.49-7.49,21,21,8.53,8.53,8.53-8.53,8.8-8.8,12.25-12.25,14.41,14.41-26.66,26.66-2.92,2.92Z"/></svg>