<svg id="Capa_1" data-name="Capa 1" xmlns="http://www.w3.org/2000/svg" viewBox="0 0 255 255"><defs><style>.cls-1{fill:#84c341;}.cls-2{fill:none;}.cls-2,.cls-3{stroke:#06c;stroke-miterlimit:10;stroke-width:4px;}.cls-3{fill:#06c;}.cls-4{fill:#393;}.cls-5{font-size:31.95px;fill:#fff;font-family:Arial-BoldMT, Arial;font-weight:700;}.cls-6{letter-spacing:-0.02em;}</style></defs><title>Mesa de trabajo 5</title><rect class="cls-1" x="64.61" y="85.12" width="61.53" height="28.24"/><rect class="cls-1" x="64.61" y="44.73" width="135.39" height="32.07"/><rect class="cls-1" x="64.61" y="123.61" width="61.53" height="28.24"/><rect class="cls-1" x="64.61" y="162.09" width="61.53" height="28.24"/><rect class="cls-1" x="138.95" y="85.12" width="61.53" height="28.24"/><rect class="cls-1" x="138.95" y="123.61" width="61.53" height="28.24"/><rect class="cls-1" x="138.95" y="162.09" width="61.53" height="28.24"/><path class="cls-2" d="M201.11,208.54H66.31a11.33,11.33,0,0,1-11.47-11.11V35.35A11.33,11.33,0,0,1,66.31,24.23H173.39l39.2,33.34V197.42A11.33,11.33,0,0,1,201.11,208.54Z"/><path class="cls-3" d="M184.86,60.35c-14.34,0-21,1.85-21-13.89V25.16h8.6l39.2,31.49v3.7Z"/><path class="cls-4" d="M230.75,190h-9.56V166.91A14,14,0,0,0,207.25,153H194a14,14,0,0,0-13.94,13.94V190H169.56c-5.74,0-5.74,4.63,0,9.26s29.64,30.56,29.64,30.56c1.16,1.34,2.45,1.13,3.82,0l30.59-31.49C238.4,193.72,237.06,190,230.75,190Z"/><rect class="cls-4" x="18.51" y="57.58" width="131.93" height="48.16" rx="12" ry="12"/><text class="cls-5" transform="translate(32.85 92.84) scale(1.03 1)">EXCE<tspan class="cls-6" x="87.01" y="0">L</tspan></text></svg>