<svg id="Capa_1" data-name="Capa 1" xmlns="http://www.w3.org/2000/svg" viewBox="0 0 255 255"><defs><style>.cls-1{fill:none;}.cls-1,.cls-2{stroke:#06c;stroke-miterlimit:10;stroke-width:4px;}.cls-2{fill:#06c;}.cls-3{fill:#333;stroke:#333;stroke-linecap:round;stroke-linejoin:round;stroke-width:7px;}.cls-4{fill:#ed1c24;}.cls-5{font-size:31.95px;fill:#fff;font-family:Arial-BoldMT, Arial;font-weight:700;}</style></defs><title>Mesa de trabajo 4</title><path class="cls-1" d="M201.16,208.54H66.36a11.33,11.33,0,0,1-11.47-11.11V35.35A11.33,11.33,0,0,1,66.36,24.24H173.44l39.2,33.34V197.42A11.33,11.33,0,0,1,201.16,208.54Z"/><path class="cls-2" d="M184.91,60.35c-14.34,0-21,1.85-21-13.89V25.16h8.6l39.2,31.49v3.7Z"/><rect class="cls-3" x="68.83" y="41.18" width="87.31" height="24.67"/><rect class="cls-3" x="68.83" y="84.31" width="129.06" height="24.67"/><rect class="cls-3" x="68.83" y="127.44" width="129.06" height="24.67"/><rect class="cls-3" x="68.83" y="170.57" width="129.06" height="24.67"/><path class="cls-4" d="M230.68,189.84l-9.44.06v-23A14,14,0,0,0,207.3,153H194.07a14,14,0,0,0-13.94,13.94v23.23l-10.64.06c-5.74,0-5.71,4.66.05,9.26s29.82,30.39,29.82,30.39c1.17,1.33,2.46,1.12,3.82,0l30.41-31.67C238.35,193.5,237,189.8,230.68,189.84Z"/><rect class="cls-4" x="18.56" y="57.58" width="94.65" height="48.16" rx="12" ry="12"/><text class="cls-5" transform="matrix(1.03, 0, 0, 1, 32.94, 92.9)">PDF</text></svg>