<svg id="Capa_1" data-name="Capa 1" xmlns="http://www.w3.org/2000/svg" viewBox="0 0 255 255"><defs><style>.cls-1{fill:#333;}.cls-2{fill:#edeef0;}.cls-3{fill:#999;}.cls-4{fill:#0071bc;}.cls-5{fill:#f7931e;}.cls-6{fill:#069;}.cls-7{fill:#c60;}</style></defs><title>Mesa de trabajo 1</title><polygon class="cls-1" points="212.5 80.25 177.5 80.25 177.5 45.25 212.5 80.25"/><polygon class="cls-1" points="177.5 45.25 42.5 45.25 42.5 215.25 212.5 215.25 212.5 80.25 177.5 80.25 177.5 45.25"/><path class="cls-2" d="M84.33,74.25a1.5,1.5,0,0,0,0-3,1.5,1.5,0,0,0,0,3Z"/><rect class="cls-2" x="83" y="39.75" width="70.5" height="36"/><rect class="cls-3" x="83" y="66.75" width="70.5" height="9"/><rect class="cls-1" x="135.5" y="52.25" width="8" height="16"/><rect class="cls-2" x="59.75" y="150.25" width="135.5" height="17.5"/><rect class="cls-3" x="59.75" y="167.75" width="135.5" height="17.5"/><polygon class="cls-4" points="59.75 205.25 59.75 214.53 78.69 205.25 59.75 205.25"/><polygon class="cls-5" points="99.1 195.25 59.75 195.25 59.75 205.25 78.69 205.25 99.1 195.25"/><polygon class="cls-6" points="195.25 215.25 195.25 205.25 78.69 205.25 59.75 214.53 59.75 215.25 195.25 215.25"/><polygon class="cls-7" points="78.69 205.25 195.25 205.25 195.25 195.25 99.1 195.25 78.69 205.25"/><polygon class="cls-4" points="119.52 185.25 59.75 185.25 59.75 195.25 99.1 195.25 119.52 185.25"/><polygon class="cls-6" points="195.25 195.25 195.25 185.25 119.52 185.25 99.1 195.25 195.25 195.25"/></svg>