<svg id="Capa_1" data-name="Capa 1" xmlns="http://www.w3.org/2000/svg" viewBox="0 0 255 255"><defs><style>.cls-1{fill:#29abe2;}.cls-2{fill:#0071bc;}</style></defs><title>Mesa de trabajo 10</title><path class="cls-1" d="M114,37.83a7,7,0,0,0-6,6.94V59.65a7,7,0,0,1-12,5l-11-11a7,7,0,0,0-9-.79A91.16,91.16,0,0,0,54.53,73.68a7,7,0,0,0,.67,9.16L66.51,94.16a7,7,0,0,1-5,12H45.08A7,7,0,0,0,38.15,112,90.24,90.24,0,0,0,38,142a7,7,0,0,0,6.94,5.91H61.55a7,7,0,0,1,5,12L54.79,171.61a7,7,0,0,0-.7,9.12,91.18,91.18,0,0,0,21.35,21,7,7,0,0,0,9-.76l11.57-11.57a7,7,0,0,1,12,5v15.83a7,7,0,0,0,6,6.94,90.81,90.81,0,0,0,30.06-.5,7,7,0,0,0,5.76-6.91V194.4a7,7,0,0,1,12-5l10.36,10.36a7,7,0,0,0,9.16.67,91.16,91.16,0,0,0,20.86-21.53,7,7,0,0,0-.79-9l-10.06-10.06a7,7,0,0,1,5-12h13.78A7,7,0,0,0,217,142a90.24,90.24,0,0,0-.16-30,7,7,0,0,0-6.93-5.86H196.3a7,7,0,0,1-5-12L201,84.48a7,7,0,0,0,.76-9,91.18,91.18,0,0,0-21-21.35,7,7,0,0,0-9.12.7l-9.82,9.82a7,7,0,0,1-12-5V45.24a7,7,0,0,0-5.76-6.91,90.81,90.81,0,0,0-30.06-.5Zm56.32,89.67A42.82,42.82,0,1,1,127.5,84.68,42.82,42.82,0,0,1,170.32,127.5Z"/><path class="cls-2" d="M114,37.83a7,7,0,0,0-4.88,3.23,6.89,6.89,0,0,0-1,2.82c-.11,1,0,2-.06,3l0,12.09a9,9,0,0,1-.38,3,7.37,7.37,0,0,1-1.57,2.59,7.67,7.67,0,0,1-2.52,1.69,7.48,7.48,0,0,1-3,.52,7.15,7.15,0,0,1-2.94-.8,10.25,10.25,0,0,1-2.37-1.91L91,59.82l-4.3-4.25c-.72-.7-1.44-1.44-2.16-2.09A6.61,6.61,0,0,0,82,52.12a6.75,6.75,0,0,0-5.53.85c-1.63,1.13-3.24,2.36-4.8,3.61A91.07,91.07,0,0,0,55.19,74,6.34,6.34,0,0,0,54,79.11a5.92,5.92,0,0,0,1.1,2.42,24.08,24.08,0,0,0,2,2.06l8.7,8.4a28.79,28.79,0,0,1,2.22,2.27,8.13,8.13,0,0,1,1.49,3.16,8.34,8.34,0,0,1-4.11,9.08,8.24,8.24,0,0,1-3.44,1l-.45,0H60.44l-1.51,0-3,.05-6,.11-3,.06-1.51,0a6.88,6.88,0,0,0-1.2.12,5.2,5.2,0,0,0-3.93,3.63,7.36,7.36,0,0,0-.24,1.2q-.22,1.46-.38,2.93a87.86,87.86,0,0,0,.5,23.51l.24,1.45c.08.47.18,1,.25,1.27a4.42,4.42,0,0,0,.88,1.68,4.32,4.32,0,0,0,3.27,1.55l12-.24,3-.06,1.51,0h.4l.53,0c.36,0,.71,0,1.07.09a10.55,10.55,0,0,1,4.09,1.57,10.81,10.81,0,0,1,3,3.16,11.23,11.23,0,0,1,1.46,4.11,11,11,0,0,1-.39,4.44,10.79,10.79,0,0,1-2.26,3.84c-.27.32-.4.44-.59.63l-.52.54-1,1.09-8.4,8.7-1,1.09-.13.14-.06.07-.12.13-.2.29a3.22,3.22,0,0,0-.34,2.67A3.3,3.3,0,0,0,57,178a2,2,0,0,0,.19.29l.12.17.22.29a89.89,89.89,0,0,0,16.22,16.35c.76.58,1.52,1.17,2.3,1.73l1.17.83.59.41.15.1.07,0,.13.08a2.68,2.68,0,0,0,2.21.18,2.43,2.43,0,0,0,.92-.59l2-2,4.22-4.32,4.22-4.32,1.06-1.09a12.86,12.86,0,0,1,1.92-1.56,11.29,11.29,0,0,1,4.72-1.8,11.87,11.87,0,0,1,9.37,2.77,11.27,11.27,0,0,1,3,4.09,12.24,12.24,0,0,1,1,4.86l.07,12.09,0,3V210a2.61,2.61,0,0,0,0,.29,1.58,1.58,0,0,0,0,.23,1.84,1.84,0,0,0,.11.43,2.13,2.13,0,0,0,1.22,1.23,2.41,2.41,0,0,0,.43.12l1.4.2q1.42.19,2.84.33,2.84.28,5.7.37a85.94,85.94,0,0,0,11.41-.4c1.89-.2,3.78-.43,5.66-.75l1.41-.24a2.48,2.48,0,0,0,.42-.13,2.05,2.05,0,0,0,1.16-1.25,2,2,0,0,0,.1-.42V202.9l0-6V194.4l0-.31,0-.63a11.54,11.54,0,0,1,1.48-4.89,11.92,11.92,0,0,1,8-5.8,11.7,11.7,0,0,1,9.67,2.32q.48.4.94.82c.18.16.22.21.32.31l.27.27,1.06,1.07,2.12,2.15,4.23,4.32,2.11,2.16.26.27.11.1a1.33,1.33,0,0,0,.19.17,2.36,2.36,0,0,0,.42.27,2.44,2.44,0,0,0,2,0l.24-.12.11-.07a1.17,1.17,0,0,0,.19-.13l1.16-.85c.76-.58,1.53-1.16,2.27-1.76,1.49-1.2,3-2.44,4.36-3.74a86.81,86.81,0,0,0,7.95-8.31c1.23-1.47,2.41-3,3.54-4.54l.42-.58c.13-.19.32-.43.33-.47a3,3,0,0,0,.3-.54,2.9,2.9,0,0,0-.07-2.41,2.8,2.8,0,0,0-.34-.53l-.1-.12s-.15-.16-.22-.24l-.52-.54-4.2-4.35-4.2-4.35-.52-.54-.28-.29-.37-.43c-.24-.29-.49-.58-.72-.89s-.41-.66-.61-1a10.33,10.33,0,0,1-1.31-4.46,10.81,10.81,0,0,1,3.14-8.31A10.24,10.24,0,0,1,192.6,145a6.12,6.12,0,0,1,1.1-.32,9.62,9.62,0,0,1,1.11-.21,17.52,17.52,0,0,1,2-.08l12.09.24.76,0h.61a3.79,3.79,0,0,0,.81-.09,3.89,3.89,0,0,0,2.56-2,5.68,5.68,0,0,0,.56-2,87.45,87.45,0,0,0,.89-23.35q-.14-1.46-.33-2.92a23.12,23.12,0,0,0-.42-2.58,4.72,4.72,0,0,0-2.58-3,5,5,0,0,0-1-.32c-.17,0-.34-.07-.51-.07s-.32,0-.6,0l-3-.06-6-.13-3-.06-.76,0c-.26,0-.47,0-.82,0a8.47,8.47,0,0,1-1.88-.29,7.91,7.91,0,0,1-3.38-1.75,9.51,9.51,0,0,1-1.32-1.36,9.8,9.8,0,0,1-1-1.61,8.46,8.46,0,0,1-.85-3.62,8.08,8.08,0,0,1,.74-3.64,9.06,9.06,0,0,1,.93-1.61c.19-.24.4-.46.6-.69a7.9,7.9,0,0,1,.58-.61l2.17-2.1,4.35-4.2,2.17-2.1c.35-.34.76-.72,1-1a5.43,5.43,0,0,0,.76-1,5.8,5.8,0,0,0,.6-4.78,7.59,7.59,0,0,0-1.28-2.33c-.56-.82-1.15-1.62-1.74-2.43a88.22,88.22,0,0,0-16.67-17.08,22,22,0,0,0-2.36-1.69,6.27,6.27,0,0,0-2.62-.74,6.43,6.43,0,0,0-5,1.94l-8.65,8.45-1.08,1.06a10.23,10.23,0,0,1-1.24,1,7.23,7.23,0,0,1-3,1.12,7.5,7.5,0,0,1-5.87-1.74,7.06,7.06,0,0,1-1.86-2.49,7.7,7.7,0,0,1-.63-3l0-6,0-6c0-1,0-2,0-3a7.11,7.11,0,0,0-.89-2.81,7,7,0,0,0-4.71-3.36c-2-.38-4-.68-6-.92A90.82,90.82,0,0,0,114,37.83Zm0,0a90.87,90.87,0,0,1,24.11-.45c2,.23,4,.53,6,.88A7.18,7.18,0,0,1,149,41.66a7.34,7.34,0,0,1,.95,2.9c.07,1,0,2,.05,3l0,6,0,6a7.2,7.2,0,0,0,.65,2.83,6.53,6.53,0,0,0,1.77,2.27,6.87,6.87,0,0,0,5.4,1.48,6.49,6.49,0,0,0,2.62-1.07,9.45,9.45,0,0,0,1.1-.92l1.06-1.08,8.45-8.65a7.67,7.67,0,0,1,9-1.58,22.51,22.51,0,0,1,2.6,1.75,95.18,95.18,0,0,1,17.55,16.88c.63.8,1.26,1.6,1.87,2.42a9.9,9.9,0,0,1,1.69,2.9,8.3,8.3,0,0,1-.63,6.87,8,8,0,0,1-1.06,1.45c-.4.44-.71.75-1.07,1.13L199,88.51l-4.2,4.35L192.67,95a4.72,4.72,0,0,0-.44.5c-.12.16-.26.3-.37.46a5.85,5.85,0,0,0-.53,1,4.77,4.77,0,0,0-.35,2.24,5,5,0,0,0,.62,2.19,6.33,6.33,0,0,0,.62,1,5.94,5.94,0,0,0,.82.76,5.87,5.87,0,0,0,.93.59,5.72,5.72,0,0,0,1,.33,4.73,4.73,0,0,0,1.11.12,6.79,6.79,0,0,0,.69,0l.76,0,3-.06,6-.13,3-.06c.22,0,.58,0,.91,0s.66.07,1,.1a9.36,9.36,0,0,1,7.3,6.17,11.71,11.71,0,0,1,.46,1.82l.28,1.53q.26,1.53.48,3.07a93,93,0,0,1,.09,24.85,11.88,11.88,0,0,1-1,3.8,10.2,10.2,0,0,1-2.62,3.44,10.12,10.12,0,0,1-6,2.42l-.53,0h-.38l-.76,0-12.09.24a9.37,9.37,0,0,0-1,.07,2.62,2.62,0,0,0-.36.09,1,1,0,0,0-.35.12,3.06,3.06,0,0,0-1.16.81,3.48,3.48,0,0,0-.89,2.7,2.82,2.82,0,0,0,.44,1.27,2.68,2.68,0,0,1,.19.29l.25.27.12.14.25.25.54.52,4.35,4.2,4.35,4.2.54.52c.11.1.15.14.3.3l.41.43a11,11,0,0,1,1.39,1.94,11.19,11.19,0,0,1,1.4,4.55,11.31,11.31,0,0,1-.62,4.73,10.85,10.85,0,0,1-1.05,2.16c-.24.39-.36.55-.52.78l-.45.65c-1.21,1.73-2.46,3.43-3.78,5.08a95.57,95.57,0,0,1-8.54,9.35c-1.52,1.47-3.1,2.88-4.72,4.23-.8.69-1.63,1.34-2.46,2l-1.26,1-.43.31-.51.35c-.35.21-.72.42-1.09.6a11.66,11.66,0,0,1-9.71.23,11.71,11.71,0,0,1-2.19-1.24,10.14,10.14,0,0,1-1-.79l-.45-.41-.27-.26-2.16-2.11-4.32-4.23-2.15-2.12-1.07-1.06-.27-.27a2,2,0,0,0-.22-.21,1.4,1.4,0,0,1-.21-.16,2,2,0,0,0-1.71-.37,2.16,2.16,0,0,0-1.45,1.06,1.75,1.75,0,0,0-.22.85v2.65l0,6v6.8c0,.34,0,.83-.06,1.24a12,12,0,0,1-.53,2.53,12,12,0,0,1-6.77,7.37,12.41,12.41,0,0,1-2.46.74l-1.57.28c-2.1.36-4.2.65-6.32.85a95.9,95.9,0,0,1-12.73.4q-3.19-.11-6.36-.44-1.59-.16-3.16-.38l-1.59-.23a12.27,12.27,0,0,1-2.49-.67,11.92,11.92,0,0,1-6.94-7.17,11.65,11.65,0,0,1-.58-2.5,11.27,11.27,0,0,1-.09-1.28v-.85l0-3,.07-12.09a.72.72,0,0,0,0-.19v-.13a.59.59,0,0,0,0-.25,1,1,0,0,1,0-.23,2.12,2.12,0,0,1-.09-.2,1.87,1.87,0,0,0-.52-.73,2.41,2.41,0,0,0-1.84-.64,1.9,1.9,0,0,0-.88.3c-.16,0-.27.24-.44.32l-1.07,1L94,198l-4.32,4.22-1.08,1.06-.54.53c-.2.19-.3.3-.66.62a11.34,11.34,0,0,1-4.24,2.48,11.49,11.49,0,0,1-9.44-1.1l-.51-.33-.24-.16-.16-.12-.64-.47-1.27-.95c-.84-.64-1.67-1.3-2.49-2a93.16,93.16,0,0,1-17.17-18.44l-.23-.32-.31-.46a9.22,9.22,0,0,1-.58-1,10.83,10.83,0,0,1,.76-11.07c.23-.31.46-.62.71-.91l.39-.42.2-.21.14-.13,1.09-1,8.7-8.4,1.09-1,.54-.52a6,6,0,0,0,.45-.46,4.19,4.19,0,0,0,.87-1.28,4.41,4.41,0,0,0,.22-1.53,4.78,4.78,0,0,0-.47-1.57,4.46,4.46,0,0,0-1.06-1.23,4.29,4.29,0,0,0-1.48-.66l-.43,0-.22,0h-.35l-1.51,0-3-.06-12.21-.27a9.68,9.68,0,0,1-7.14-3.8,9.59,9.59,0,0,1-1.73-3.71c-.16-.74-.2-1.19-.27-1.71l-.19-1.54a92.34,92.34,0,0,1,.5-24.7q.23-1.53.52-3a11.15,11.15,0,0,1,.44-1.74,9.06,9.06,0,0,1,.81-1.73,8.87,8.87,0,0,1,6.09-4.12c.31,0,.62-.09.94-.1s.65,0,.88,0l1.51,0,3,.06,6,.11,3,.05,1.51,0h1.13l.31,0a5.51,5.51,0,0,0,2.34-.57,5.8,5.8,0,0,0,1.88-1.54,5.93,5.93,0,0,0,1.17-4.7,5.82,5.82,0,0,0-1-2.29c-.48-.63-1.25-1.39-1.94-2.11l-8.4-8.7a24.41,24.41,0,0,1-2.11-2.33,7.83,7.83,0,0,1,.24-9.34A92.18,92.18,0,0,1,71.16,55.93c1.61-1.23,3.24-2.41,4.94-3.54a7.38,7.38,0,0,1,6.07-.8,7.14,7.14,0,0,1,2.71,1.53c.76.71,1.42,1.44,2.14,2.16l4.25,4.3,4.25,4.3a10,10,0,0,0,2.29,1.89,6.92,6.92,0,0,0,2.83.8,7.29,7.29,0,0,0,2.92-.47A7.52,7.52,0,0,0,106,64.47a7.07,7.07,0,0,0,1.56-2.53,8.93,8.93,0,0,0,.38-3l0-12.09c0-1,0-2,.07-3a6.92,6.92,0,0,1,1-2.83A7,7,0,0,1,114,37.83Z"/><path class="cls-2" d="M170.32,127.5a45.39,45.39,0,0,1-60.54,42.77,46,46,0,0,1-15.6-9.45A45.48,45.48,0,0,1,83.5,145.73c-.55-1.46-1.15-2.9-1.64-4.38s-.87-3-1.2-4.53-.51-3.09-.71-4.63l-.26-4.68a46.08,46.08,0,0,1,3.8-18.23,45.35,45.35,0,0,1,10.68-15.1,45.39,45.39,0,0,1,76.15,33.34Zm0,0a41.15,41.15,0,0,0-3.43-16.32,40.42,40.42,0,0,0-9.6-13.47A40.12,40.12,0,0,0,127.5,87.2a40.4,40.4,0,1,0,15.81,78.48,40.89,40.89,0,0,0,14-8.38,40.43,40.43,0,0,0,9.6-13.48A41.17,41.17,0,0,0,170.32,127.5Z"/></svg>