<svg id="Capa_6" data-name="Capa 6" xmlns="http://www.w3.org/2000/svg" viewBox="0 0 503.02 346.96"><defs><style>.cls-1{fill:#6b6c6a;}.cls-2{fill:#1a1a1a;}.cls-3{fill:#989898;}.cls-4{fill:#333;}.cls-5{font-size:44.02px;}.cls-5,.cls-9{fill:#fff;stroke:#333;stroke-miterlimit:10;stroke-width:2px;font-family:Rockwell-ExtraBold, Rockwell Extra Bold;}.cls-6{letter-spacing:-0.02em;}.cls-7{letter-spacing:-0.02em;}.cls-8{letter-spacing:-0.01em;}.cls-9{font-size:22.34px;}.cls-10{letter-spacing:-0.15em;}.cls-11{fill:#005472;}</style></defs><title>logo agrisot ilus</title><path class="cls-1" d="M478.15,199.78l56.79,16.84c-1.15-4.31-9.88-35.08-39.69-47.87-5.84-2.51-21.45-9.21-38.05-4.23-14.48,4.35-18.87,14.34-39.58,22.3a97.1,97.1,0,0,1-19.28,5.2L175.18,178.09a52.75,52.75,0,0,1-18.27-6.7c-9.92-6-12.49-12.28-18.95-18.74-15.37-15.39-37.65-16.6-42.41-16.72a67.14,67.14,0,0,0-43,14.55L109,170.73a48.76,48.76,0,0,1,1.08,27.49c-4.59,17.81-18,26.9-21.32,29L32,210.38c1.64,4.62,13.51,36.71,39.69,47.87,4.87,2.08,15.36,6.55,27.79,4.13,4-.77,7.37-2.39,14.18-5.64,16.69-7.95,19.95-12.57,30.5-16.23a64.47,64.47,0,0,1,21-3.47l222.56,14a53.93,53.93,0,0,1,18.83,5.08c11.15,5.38,14.57,12.06,24,19.18a81.29,81.29,0,0,0,29.73,12.82c24.41,4.91,45.68-6.43,54.08-11.57l-56.5-20.24C453.32,231.55,458.54,211.92,478.15,199.78Z" transform="translate(-31.95 -39.12)"/><path class="cls-2" d="M478.15,202.28l56.79,16.84c-.26-.08.14-4.48,0-5-6.14-22.88-22.63-41.8-44.94-50-16.62-6.11-33.08-4.71-47.49,5.66-13.65,9.82-30.62,20.59-48.17,19.49l-141.46-8.83L182.15,176c-9.72-.61-18.56-2.67-26.83-8.13-7.59-5-12-12.74-18.5-18.85C114.1,127.74,76.1,129.2,52.53,148c-.24.19-.08,5,0,5l27.78,10,19.35,6.93c2.07.74,7.77,1.65,9.34,3.35,1.88,2,2.07,8.16,2.33,10.69.66,6.44-1.18,13.24-3.77,19.11a50.18,50.18,0,0,1-16.19,19.93c-3.06,2.25-3.87,1.39-7.43.34l-17.37-5.15L32,207.88c.3.09-.19,4.47,0,5,6.05,16.94,16.69,33.94,32,43.8,10.54,6.77,24.48,11.06,36.9,7.87,12-3.07,22.8-10.7,33.33-16.88,20.62-12.1,45.5-7.21,68.12-5.79l106,6.66,76.42,4.8a66.87,66.87,0,0,1,9.78,1.2,49.43,49.43,0,0,1,20.82,9.68c5.29,4.27,9.68,9.54,15.18,13.56,20.73,15.17,47.62,17.64,71.07,7.77A97,97,0,0,0,514.4,279a27.44,27.44,0,0,0,0-5l-34.26-12.27L461.27,255c-.75-.27-2.79-.58-3.35-1.2-1.25-1.38-1.11-7.27-1.26-9a45.79,45.79,0,0,1,.58-12.15c2.33-13,9.87-23.29,20.91-30.32.78-.5-.73-4.54,0-5-11,7-18.57,17.34-20.91,30.32a73.57,73.57,0,0,0-.91,13.17c0,5.28-.26,11.4,1.3,16.46.68,2.18,1.35,1.92,3.64,2.74l9.39,3.36,26.41,9.46L514.4,279v-5a86.39,86.39,0,0,1-32.11,12.06c-15.22,2.22-30.36-1.28-43.83-8.47-9-4.78-15.21-12.07-23-18.38a51.15,51.15,0,0,0-28.15-10.73c-21.87-1.72-43.81-2.75-65.71-4.12l-107.94-6.78-37.52-2.36c-9.73-.61-18.63-1-28.32,1.65-10.48,2.91-19,9.56-28.49,14.54-5.79,3-12,6.5-18.38,8.13-7.07,1.8-14.65,1.14-21.59-.94-21.44-6.42-35.93-24.26-44.71-44.11-1-2.17-1.85-4.38-2.65-6.62v5l31.74,9.41,19.63,5.82c1.35.4,3.48,1.52,4.91,1.46s2.49-1.15,3.68-2c15-11.34,20.87-28.85,19.52-47.16-.2-2.77-.35-10-2.46-12.14-.57-.58-2.37-.85-3.11-1.11l-17.29-6.2L52.53,148v5c20.53-16.36,50.12-19.21,73.32-6.76,8.06,4.33,13.64,10.52,19.41,17.43a48,48,0,0,0,23,15.28c10.08,3.1,21.36,2.55,31.81,3.21l34.87,2.18,141.46,8.83,16.94,1.06a42.31,42.31,0,0,0,14.14-1.63,88.06,88.06,0,0,0,26.18-11.5c5.65-3.72,10.78-8.28,16.83-11.37,8.45-4.33,18.16-5.31,27.47-3.81,27.83,4.5,49.76,26.35,57,53.21v-5l-56.79-16.84C478.57,197.4,477.66,202.13,478.15,202.28Z" transform="translate(-31.95 -39.12)"/><path class="cls-3" d="M385.29,241.55,185,227.2c-11.1,1.08-19-10.6-17.83-21.61,1.05-9.71,9.17-18.6,18.75-17.9l198.93,12.23c8.94-.72,16.39,8.08,16.5,19.49S394.24,240.82,385.29,241.55Z" transform="translate(-31.95 -39.12)"/><path class="cls-4" d="M385.29,240.3l-138.06-9.89c-20.11-1.44-40.23-3.19-60.37-4.32-3.14-.18-6.24,0-9.19-1.37-10.75-5-13.07-19-6.5-28.12,2.85-4,7.16-7,12.09-7.59,7.87-.88,16.68.81,24.57,1.29l45.75,2.81L359,199.58c9,.55,18.07.92,27.07,1.55,5.54.39,9.89,3.59,12.54,8.45,6.11,11.19.43,28.94-13.35,30.72-.12,0,.09,2.49,0,2.5,18.32-2.36,22.63-35.34,5.93-43-2.4-1.1-4.75-1.13-7.33-1.21-4.31-.14-8.63-.53-12.93-.8l-24.87-1.53-49.73-3.06-100.46-6.18c-6.6-.41-13.49-1.84-19.39,1.92a21.18,21.18,0,0,0-9.11,14c-1.16,6.53,0,13.93,4.11,19.21,5.42,7,14.06,6.32,22,6.89l32.6,2.34,95.56,6.85,41.09,2.94,13.79,1c2.11.15,5.64,1.12,7.71.55a3.64,3.64,0,0,1,1,.07S385.37,240.3,385.29,240.3Z" transform="translate(-31.95 -39.12)"/><text class="cls-5" transform="matrix(0.63, 0.04, -0.07, 1, 147.36, 182.81)"><tspan class="cls-6">A</tspan><tspan x="32.56" y="0">G</tspan><tspan class="cls-7" x="69.73" y="0">R</tspan><tspan x="106.65" y="0">OINSO</tspan><tspan class="cls-8" x="268.09" y="0">F</tspan><tspan x="298.68" y="0">T</tspan></text><path class="cls-3" d="M432.52,208.25c-13.59,27.92,2.45,52.22-1,52.87-2.76.52-14.45-14.5-14.75-33,0-1.26.15-31.12,32.3-51.27,5.18-3.24,13.33-7.58,14.91-6.63C466.76,171.89,443,186.74,432.52,208.25Z" transform="translate(-31.95 -39.12)"/><path class="cls-4" d="M431.52,209.37A58.5,58.5,0,0,0,427,244.83a113.36,113.36,0,0,0,2.85,11.53c.41,1.42,1.77,4.22,1,5.69l2-2.24c-1.88,1.68-6.46-5.59-7.11-6.61A51.59,51.59,0,0,1,418,231.12c-.72-6.81.58-13.55,2.81-20,5.06-14.56,15.27-25.94,28.38-33.89,2.36-1.43,11.69-8,14-5.47,0,0-.4,1.49.06.4-.35.86-2,1.89-2.65,2.55-2.12,2-4.28,3.94-6.38,6-8.79,8.43-17.19,17.74-22.69,28.69.43-.86,1.56-1.37,2-2.24,5.88-11.7,15-20.76,24.43-29.57,1.71-1.59,6.3-4.81,6.92-7.28s-2.12-1.09-3.68-.49a70.91,70.91,0,0,0-15.33,8.72,83.86,83.86,0,0,0-15.11,14.18c-8.28,9.77-14.62,22.73-15,35.76-.25,9,2.74,18.34,7.35,26,1.49,2.48,5.52,10.08,8.73,6.49,3-3.32-1.16-10.57-2-14.3-3.12-13.46-2.18-26.91,3.7-39.51C433.11,208,431.93,208.5,431.52,209.37Z" transform="translate(-31.95 -39.12)"/><path class="cls-3" d="M133.31,230.62c-10.86,10.89-26.2,15.28-26.95,14.36-.44-.55,4.26-3,10.12-8.4a65.91,65.91,0,0,0,14.27-19.16c1.52-3,11.39-22.76,6.6-45.09-.81-3.77-2.09-7.9-1.11-8.21,1.41-.45,7.34,7.11,10.17,15.37C150.2,190.54,150.86,212.34,133.31,230.62Z" transform="translate(-31.95 -39.12)"/><path class="cls-4" d="M134.22,229.7A58.6,58.6,0,0,1,115,242.05a21.88,21.88,0,0,1-5.7,1.81c-.39,0-2.41.58-1.69-.37l-2.08,2.09c4.76-4.31,10-7.84,14.53-12.5a69,69,0,0,0,12.27-17.75,74.67,74.67,0,0,0,6.46-20.56,65.71,65.71,0,0,0,.59-17.23,70.71,70.71,0,0,0-1.53-8.68c-.3-1.31-1.58-4.54-.56-5.79l-2.12,2.12c3.81.09,7.83,9.68,9,12.32a42.24,42.24,0,0,1,3.35,15.4c.54,14.59-5.35,28.16-15.22,38.74.49-.52,1.43-1.38,2.05-2,11.14-11.95,17.27-27.92,14.78-44.31a40.4,40.4,0,0,0-8.73-19.75c-1.74-2.06-3.67-3.54-5.21-.37-1.34,2.76,1.13,8,1.62,10.92a62.6,62.6,0,0,1,.48,16.17,75.34,75.34,0,0,1-5.5,21.68,70.62,70.62,0,0,1-7.31,13.33,61.1,61.1,0,0,1-13.86,13.91,36.33,36.33,0,0,0-3.79,3.07c-.32.31-1.75,1.41-1.39,1.87.63.8,5.35-1.16,6-1.38a59,59,0,0,0,21-13.19C132.83,231.12,134.31,229.62,134.22,229.7Z" transform="translate(-31.95 -39.12)"/><text class="cls-9" transform="translate(313.24 230.99) rotate(2.89) scale(0.85 1)"><tspan class="cls-10">V</tspan><tspan x="13.3" y="0">.2</tspan></text><path class="cls-11" d="M148.14,137.74c6.22,8.17,8.76,16.18,18.24,23.68a43,43,0,0,0,11.15,6.42,117.29,117.29,0,0,1,221.84,15,74.13,74.13,0,0,0,13.12-5.56c14.21-7.69,20.12-16.64,27.61-23.15l-18,4.46a4.71,4.71,0,0,1-5.48-2.71l-.44-1a4.67,4.67,0,0,1,1.7-5.74L434.5,138a4.69,4.69,0,0,0,1.28-6.52l-17.07-25.19a4.74,4.74,0,0,0-6.56-1.27l-15.57,10.45a4.72,4.72,0,0,1-6.12-.72l-1-1.12a4.66,4.66,0,0,1-.34-5.93l11.05-15.13a4.68,4.68,0,0,0-1-6.56l-24.7-17.86a4.74,4.74,0,0,0-6.6,1l-10.1,13.83a4.71,4.71,0,0,1-6,1.4q-1.56-.84-3.14-1.64a4.66,4.66,0,0,1-2.34-5.45l5.13-17.76a4.69,4.69,0,0,0-3.24-5.81l-29.35-8.37a4.73,4.73,0,0,0-5.84,3.22l-4.89,17A4.7,4.7,0,0,1,302.93,69l-2.55-.3a4.68,4.68,0,0,1-4.16-4.33L295,47.21a4.71,4.71,0,0,0-5-4.36L259.52,45a4.71,4.71,0,0,0-4.38,5l1.18,16.92a4.69,4.69,0,0,1-3.61,4.89l-1.48.35a4.71,4.71,0,0,1-5.42-2.65l-6.9-15.43a4.73,4.73,0,0,0-6.23-2.38l-27.9,12.37a4.69,4.69,0,0,0-2.4,6.2l6.95,15.54a4.71,4.71,0,0,1-1.73,5.84q-1.9,1.28-3.76,2.62a4.77,4.77,0,0,1-6.22-.5l-12.2-12.57a4.74,4.74,0,0,0-6.68-.11l-22,21.12a4.68,4.68,0,0,0-.12,6.64l13.1,13.51a4.66,4.66,0,0,1,.48,5.93q-.73,1-1.44,2.07a4.72,4.72,0,0,1-6,1.56L146.5,124a4.74,4.74,0,0,0-6.32,2.17l-1.13,2.29A52.74,52.74,0,0,1,148.14,137.74Z" transform="translate(-31.95 -39.12)"/><path class="cls-2" d="M148.42,137.53c2.19,2.87,4.08,5.93,6,9a69.11,69.11,0,0,0,6.16,8.71,42.48,42.48,0,0,0,17.2,12.08l-.76.33a122.47,122.47,0,0,1,46.08-56.25,119.39,119.39,0,0,1,33.92-15l4.53-1.15c1.52-.35,3.06-.57,4.59-.86l4.61-.81,4.65-.48a100.8,100.8,0,0,1,18.7-.41,121.46,121.46,0,0,1,18.56,2.6,116.07,116.07,0,0,1,17.9,5.58,118.07,118.07,0,0,1,32,19.27,119.39,119.39,0,0,1,38.61,62.38l-2.28-1.26a72.23,72.23,0,0,0,11.46-4.5,74.65,74.65,0,0,0,10.56-6.38,87.17,87.17,0,0,0,9.36-8.16c3-2.92,5.86-6,9.13-8.83l1,2-9.76,2.38-4.88,1.2-2.44.6-.61.15-.31.07-.38.08a5.72,5.72,0,0,1-1.54.06,5.79,5.79,0,0,1-4.77-3.44l-.5-1.18a5.59,5.59,0,0,1-.38-1.49,5.67,5.67,0,0,1,.47-3,5.8,5.8,0,0,1,1.93-2.34l2.1-1.42,4.17-2.81,8.33-5.62,2.08-1.4a3.61,3.61,0,0,0,1.23-1.45,3.57,3.57,0,0,0-.37-3.66l-11.39-16.56-5.71-8.27a3.35,3.35,0,0,0-4.71-.91l-2.07,1.43-8.27,5.71-4.14,2.85-1.07.73a6.44,6.44,0,0,1-7.92-.7l-.31-.3-.21-.23-.43-.45-.44-.46a6.56,6.56,0,0,1-.55-.68,6.49,6.49,0,0,1-.49-6.64,6.27,6.27,0,0,1,.44-.75l.39-.55.73-1,1.46-2L393,99l2.91-4.1,1.45-2.05.73-1,.36-.51c.06-.11.13-.19.17-.3a2.5,2.5,0,0,0-.16-2.55A2.64,2.64,0,0,0,398,88l-.13-.1-.19-.14-.51-.36L395.11,86,378.65,74.43l-4.11-2.89-1-.72c-.33-.24-.76-.53-.83-.57a2.06,2.06,0,0,0-2.06,0,1.93,1.93,0,0,0-.4.33,2,2,0,0,0-.17.2l-.35.48-2.92,4.09-5.84,8.18-.73,1c-.09.13-.33.44-.54.7A7.88,7.88,0,0,1,359,86a7.66,7.66,0,0,1-3.61,1.79,7.56,7.56,0,0,1-4.06-.29,7.68,7.68,0,0,1-.95-.41l-.58-.29-1.09-.56-1.09-.56a10.61,10.61,0,0,1-1.53-.9,7.72,7.72,0,0,1-3-7.33,8.47,8.47,0,0,1,.21-1l.17-.6.34-1.21L346.5,65l1.37-4.84.34-1.21c0-.08.07-.25.07-.26a.74.74,0,0,1,0-.1c0-.07,0-.13,0-.2a1.49,1.49,0,0,0-.71-1.32,1.64,1.64,0,0,0-.36-.16l-1.15-.32-4.84-1.35-19.36-5.41-2.42-.68-1.21-.34-.3-.08-.15,0h0l-.18,0a1.3,1.3,0,0,0-1.2.56,1,1,0,0,0-.15.3l0,.08-.08.29-.17.6-.68,2.42-1.37,4.84-1.37,4.84L311.87,65l-.34,1.21a10.3,10.3,0,0,1-.65,1.78,8.28,8.28,0,0,1-7.06,4.58,7.76,7.76,0,0,1-1.11,0l-.71-.07-1.22-.14-.61-.07c-.13,0-.63-.08-1-.14a8.54,8.54,0,0,1-2.1-.73,8.3,8.3,0,0,1-3.24-3,8,8,0,0,1-.92-2,8.87,8.87,0,0,1-.26-1.08c0-.35-.1-.81-.1-.95l-.38-5-.75-10-.09-1.25,0-.62s0-.09,0-.13a.91.91,0,0,0-.23-.45,1,1,0,0,0-.45-.28,1.17,1.17,0,0,0-.26,0l-.88.06-10,.71-19.75,1.4a1,1,0,0,0-.76.62.76.76,0,0,0-.05.24.61.61,0,0,0,0,.13,2,2,0,0,0,0,.23l0,.31.18,2.51.66,10,.16,2.51.08,1.25,0,.48c0,.19,0,.37,0,.56a7.92,7.92,0,0,1-.13,1.12,8.38,8.38,0,0,1-5.6,6.45c-.85.25-1.09.28-1.52.39l-.6.14a9.51,9.51,0,0,1-1,.19,8.35,8.35,0,0,1-7.77-3.43,8.13,8.13,0,0,1-.58-.95l-.25-.5-.13-.3-.51-1.15-4.06-9.19-2-4.6-.12-.26,0-.07c0-.05-.06-.09-.08-.13a1.39,1.39,0,0,0-.21-.22,1.19,1.19,0,0,0-.58-.26,1.15,1.15,0,0,0-.63.07l-2.21,1-4.61,2-9.23,4-9.23,4-2.31,1-.29.12-.21.1a1.06,1.06,0,0,0-.18.09,1.33,1.33,0,0,0-.31.24,1.51,1.51,0,0,0-.37,1.51l3.85,9,2,4.62,1,2.43a7.45,7.45,0,0,1-1.3,7.53,7.49,7.49,0,0,1-1.45,1.31l-1.09.73-2.05,1.36-1.18.77a7.35,7.35,0,0,1-8.91-.95c-.27-.26-.36-.37-.51-.53l-.43-.46-.86-.92L192.56,92l-6.84-7.36L184,82.75l-.29-.29a3.23,3.23,0,0,0-.28-.21,2.66,2.66,0,0,0-.63-.32,2.77,2.77,0,0,0-2.72.55L165.31,96.08l-7.4,6.81-.23.21-.17.17a3.64,3.64,0,0,0-.3.35,3.46,3.46,0,0,0,.17,4.32c.5.56,1.12,1.21,1.68,1.81l6.87,7.34,3.43,3.67.86.92a6,6,0,0,1,.87,1.15,5.49,5.49,0,0,1,.75,2.8,5.38,5.38,0,0,1-.8,2.77c-.52.78-1,1.39-1.47,2.09a7.13,7.13,0,0,1-.88,1.07,5.48,5.48,0,0,1-1.16.84,5.41,5.41,0,0,1-2.76.64,5.29,5.29,0,0,1-1.4-.24,7.77,7.77,0,0,1-1.24-.54l-2.25-1.12-4.5-2.25-9-4.45a4.31,4.31,0,0,0-5.84,1.94l-1.12,2.25-.11-.5A53.36,53.36,0,0,1,148.42,137.53Zm-.56.42a52.6,52.6,0,0,0-9.06-9.22l-.26-.2.14-.3,1.1-2.26a5.18,5.18,0,0,1,7-2.39l9.07,4.32,4.55,2.14,2.27,1.07a6.57,6.57,0,0,0,1.07.44,4,4,0,0,0,1.07.16,4.08,4.08,0,0,0,3.61-2.06c.45-.68,1-1.43,1.38-2.05a3.89,3.89,0,0,0,.53-2,3.94,3.94,0,0,0-.58-2,4.1,4.1,0,0,0-.68-.83l-.89-.89-3.56-3.54-7.13-7.09c-.6-.61-1.16-1.14-1.8-1.81a5.79,5.79,0,0,1-1.43-2.75,5.9,5.9,0,0,1,.19-3.12,6,6,0,0,1,.7-1.43,6.18,6.18,0,0,1,.49-.63l.27-.29.22-.22,7.1-7.12,14.2-14.24A6.78,6.78,0,0,1,184,78a7,7,0,0,1,3,1.82l1.79,1.77L196,88.64l3.51,3.45a2.19,2.19,0,0,0,2.19.39,2.11,2.11,0,0,0,.52-.27l.9-.65,2.07-1.51,1-.71A2.06,2.06,0,0,0,206.9,88a1.71,1.71,0,0,0-.14-1l-1-2.17-2.12-4.55-2.12-4.55-1.06-2.28-.53-1.14-.27-.57-.14-.32-.19-.48a7.86,7.86,0,0,1,1.47-7.88,7.69,7.69,0,0,1,1.6-1.38,7.33,7.33,0,0,1,.92-.52l.36-.17.29-.13,2.29-1,9.15-4.16,9.15-4.16,4.58-2.08,2.39-1.06a8.26,8.26,0,0,1,8.28,1.16,8.43,8.43,0,0,1,1.53,1.58,8.89,8.89,0,0,1,.59.93l.25.49.15.32,2.07,4.58,4.14,9.16.52,1.14.13.28,0,.06a.9.9,0,0,0,.08.12,1,1,0,0,0,.45.35,1,1,0,0,0,.55.07l.19,0,.63-.15.92-.23a1,1,0,0,0,.66-.8.67.67,0,0,0,0-.13.23.23,0,0,0,0-.07,1,1,0,0,0,0-.15l-.09-1.25-.19-2.51-.74-10-.17-2.51,0-.31,0-.4a7.94,7.94,0,0,1,0-1.13,8.24,8.24,0,0,1,.49-2.21,8.48,8.48,0,0,1,6.67-5.42l.56-.07.37,0,.63,0,1.25-.09,2.51-.17,5-.35,10-.69,10-.69.63,0h1a8.6,8.6,0,0,1,2.21.37,8.42,8.42,0,0,1,5.78,6.34,9,9,0,0,1,.16,1.11l0,.63.08,1.25.65,10,.32,5c0,.28,0,.23,0,.3s0,.1,0,.14a.86.86,0,0,0,.11.26,1.09,1.09,0,0,0,.41.4c.25.1,0,.09,1.19.22l1.28.16.32,0,.22,0h.15a1.15,1.15,0,0,0,1-.61c0,.08.33-1,.55-1.78l.71-2.41,1.42-4.82L308.64,51l.71-2.41.18-.6.09-.32.18-.51a7.85,7.85,0,0,1,1-1.92,8.15,8.15,0,0,1,7.55-3.34,7.12,7.12,0,0,1,1.06.19l.26.06.15,0,.3.09,1.21.35,2.41.7,19.3,5.62,4.82,1.4,1.27.37a8.09,8.09,0,0,1,1.91.88,7.92,7.92,0,0,1,3.65,7.2,8.53,8.53,0,0,1-.14,1l-.12.51-.1.35L354,61.92l-1.42,4.82-2.86,9.64-.36,1.2-.18.6a2.24,2.24,0,0,0-.05.23,1.63,1.63,0,0,0,.57,1.55,4.32,4.32,0,0,0,.63.37l1.13.6,1.13.6.54.29a1.72,1.72,0,0,0,.2.09,1.6,1.6,0,0,0,.89.08,1.74,1.74,0,0,0,.85-.4,2,2,0,0,0,.17-.16c.05-.07.08-.08.23-.3l.75-1,6-8,3-4,.4-.53a7.5,7.5,0,0,1,.65-.75,7.45,7.45,0,0,1,9.1-1.15c.64.4.88.61,1.23.87l1,.75,4,3,16.12,12,2,1.5.5.38.31.24.36.29a7.08,7.08,0,0,1,1.19,1.42,6.86,6.86,0,0,1,.2,7,7.94,7.94,0,0,1-.49.76l-.38.5-.76,1-1.51,2-3,4-3,4-1.51,2-.75,1c-.11.15-.28.37-.35.47a2.56,2.56,0,0,0-.2.32,2.83,2.83,0,0,0,.13,2.9,3,3,0,0,0,.23.31l.41.46.43.47.21.24.14.14a2.92,2.92,0,0,0,1.35.77,3,3,0,0,0,2.32-.35l1-.66,4.21-2.75,8.41-5.5,2.1-1.37a6.13,6.13,0,0,1,8.56,1.8l5.56,8.37,11.16,16.72a6,6,0,0,1,1.06,2.85,5.83,5.83,0,0,1-2.55,5.34l-2.09,1.4-8.36,5.58-4.18,2.79-2.07,1.39a3.6,3.6,0,0,0-1.51,3.38,3.46,3.46,0,0,0,.24.93l.49,1.13a3.63,3.63,0,0,0,3,2.14,3.55,3.55,0,0,0,1,0l.24,0,.3-.08.61-.15,2.44-.61,4.87-1.23,9.74-2.46,4.59-1.16-3.55,3.16c-3.07,2.74-5.87,5.85-8.83,8.88a90.51,90.51,0,0,1-9.48,8.59,77.64,77.64,0,0,1-10.79,7,75.62,75.62,0,0,1-11.85,5.08l-1.76.58-.51-1.84a115.28,115.28,0,0,0-38.83-58.82,118.67,118.67,0,0,0-30.59-17.94,112.38,112.38,0,0,0-17-5.24,115.27,115.27,0,0,0-17.57-2.66c-1.48-.08-3-.22-4.44-.24l-4.45-.07-4.45.09c-1.48.06-3,.21-4.44.31l-4.45.34-4.41.66c-1.47.24-2.95.4-4.41.7l-4.35,1a115,115,0,0,0-33.18,13.15,117.91,117.91,0,0,0-27.64,23,114.66,114.66,0,0,0-19.36,30.51l-.23.54-.53-.21a43.26,43.26,0,0,1-9.47-5.28,47.19,47.19,0,0,1-7.94-7.36,69.88,69.88,0,0,1-6.17-8.85C151.86,143.85,150,140.8,147.86,138Z" transform="translate(-31.95 -39.12)"/><path class="cls-11" d="M426.49,290.19c-9.08-9-12.43-17.45-23.06-24.16a41.36,41.36,0,0,0-10.76-4.85,117.29,117.29,0,0,1-219.39-15.85A46.65,46.65,0,0,0,155.72,250c-9.88,4.84-12.86,10.79-28.44,21.19l-.45.3a4.71,4.71,0,0,0,3.69.61L150,267.22a4.7,4.7,0,0,1,5.47,2.68q.47,1.09.95,2.17a4.67,4.67,0,0,1-1.69,5.77L138.14,289a4.69,4.69,0,0,0-1.28,6.52l17.07,25.19a4.74,4.74,0,0,0,6.56,1.27l16.12-10.82a4.72,4.72,0,0,1,6.09.69q.88,1,1.79,1.9a4.66,4.66,0,0,1,.37,6l-11.37,15.57a4.68,4.68,0,0,0,1,6.56l24.7,17.86a4.74,4.74,0,0,0,6.6-1l11-15.07a4.72,4.72,0,0,1,6-1.42l1.26.64a4.67,4.67,0,0,1,2.39,5.47l-4.74,16.44a4.69,4.69,0,0,0,3.24,5.81l29.35,8.37a4.73,4.73,0,0,0,5.84-3.22l4.59-15.89a4.7,4.7,0,0,1,5-3.37q1.44.17,2.9.31a4.68,4.68,0,0,1,4.21,4.34L278,378a4.71,4.71,0,0,0,5,4.36l30.47-2.13a4.71,4.71,0,0,0,4.38-5l-1.2-17.15a4.69,4.69,0,0,1,3.59-4.85q1.88-.47,3.73-1a4.7,4.7,0,0,1,5.54,2.62l7.06,15.78a4.73,4.73,0,0,0,6.23,2.38l27.9-12.37a4.69,4.69,0,0,0,2.4-6.2l-7.6-17a4.72,4.72,0,0,1,1.63-5.77l.07,0a4.71,4.71,0,0,1,6.09.6l12.72,13.11a4.74,4.74,0,0,0,6.68.11l22-21.12a4.68,4.68,0,0,0,.12-6.64l-13.36-13.78a4.66,4.66,0,0,1-.46-6l.93-1.32a4.72,4.72,0,0,1,5.93-1.53l18,8.73a4.74,4.74,0,0,0,6.32-2.17l2.43-5A65,65,0,0,1,426.49,290.19Z" transform="translate(-31.95 -39.12)"/><path class="cls-2" d="M426.24,290.44a92.88,92.88,0,0,1-7.53-8.54c-2.36-3-4.66-6-7.24-8.68a41.46,41.46,0,0,0-8.71-7,40.79,40.79,0,0,0-10.25-4.41l.73-.34A123.38,123.38,0,0,1,374,291.64a117.37,117.37,0,0,1-60.6,37.62c-1.47.37-2.95.75-4.43,1.08l-4.49.78-2.25.39c-.75.13-1.5.27-2.26.33l-4.54.46a103.72,103.72,0,0,1-18.24.31,116.58,116.58,0,0,1-52-16,121.6,121.6,0,0,1-14.94-10.51,119.14,119.14,0,0,1-38.88-60.2l2,1.37a45.85,45.85,0,0,0-12.8,2.47,41.59,41.59,0,0,0-11.51,6.15c-3.53,2.65-6.89,5.76-10.49,8.59s-7.31,5.51-11.13,8l0-2a3.54,3.54,0,0,0,2.76.5l1.24-.3,5-1.22,9.93-2.43,2.48-.61.62-.15.31-.08.38-.08a5.79,5.79,0,0,1,6.36,3.48l.5,1.16.25.58c.08.19.17.38.27.65a5.72,5.72,0,0,1-1.13,5.85,6.1,6.1,0,0,1-1.16,1l-1.06.71-8.47,5.72-4.24,2.86-2.12,1.43-.53.36c-.16.12-.27.2-.4.31a3.81,3.81,0,0,0-.64.73,3.56,3.56,0,0,0-.14,3.69c.14.24.41.63.65,1l.72,1.05,1.45,2.11,5.79,8.42,5.8,8.42,2.92,4.2a3.44,3.44,0,0,0,1.36,1.23,3.36,3.36,0,0,0,1.73.33,3.31,3.31,0,0,0,1.65-.61l2.1-1.45,4.21-2.9,8.42-5.8,1.05-.73c.14-.1.44-.29.68-.43A6.82,6.82,0,0,1,177,309a6.48,6.48,0,0,1,6.59,1.14c.49.45.72.72,1,1l.88.91.47.49a6.24,6.24,0,0,1,.56.7,6.72,6.72,0,0,1,.81,1.6,6.58,6.58,0,0,1,.19,3.53,6.32,6.32,0,0,1-.62,1.68,7.33,7.33,0,0,1-.47.76l-.37.52-1.48,2.09-5.91,8.34-3,4.17-.37.52c-.11.17-.14.21-.2.33a2.7,2.7,0,0,0-.23.63,2.45,2.45,0,0,0,.08,1.31,2.4,2.4,0,0,0,.73,1.07l.86.62,1,.73,4.18,2.93,8.37,5.87,8.36,5.88,2.09,1.47.24.16.12.07a2.66,2.66,0,0,0,.24.12,2.27,2.27,0,0,0,.52.13,2,2,0,0,0,1.85-.82l5.93-8.32,3-4.15,1.49-2.08.37-.52.1-.14.16-.21c.11-.13.21-.27.33-.4a7.72,7.72,0,0,1,5.53-2.56,7.41,7.41,0,0,1,2.08.22,8.24,8.24,0,0,1,1,.32c.31.13.7.31.82.38l1.16.58a7.72,7.72,0,0,1,3.89,4.78,7.79,7.79,0,0,1,0,4.19l-.69,2.47-1.38,4.92L226,361.43l-.7,2.46-.35,1.23-.09.31a1.69,1.69,0,0,0-.06.23,1,1,0,0,0,0,.2,1.46,1.46,0,0,0,.65,1.37,1.38,1.38,0,0,0,.36.17l.46.14.62.17,2.46.69,19.69,5.5,4.92,1.37,1.23.34a.82.82,0,0,0,.15,0l.09,0a1.22,1.22,0,0,0,.18,0,1.32,1.32,0,0,0,.68-.18,1.28,1.28,0,0,0,.47-.49s0-.11.07-.15l0-.08,0,0,0-.15.35-1.23,1.39-4.92,2.85-10a8.28,8.28,0,0,1,6.53-5.5,8.77,8.77,0,0,1,2.23,0l1.24.12,1.24.12.31,0,.56.07a8,8,0,0,1,1.1.26,8.32,8.32,0,0,1,5.71,6.45c0,.18.06.37.08.56l0,.46,0,.64.1,1.27.19,2.55.77,10.19.1,1.27.08.95a.92.92,0,0,0,.22.46,1,1,0,0,0,.44.3,1.28,1.28,0,0,0,.26,0h.18l.64,0,10.2-.72,19.75-1.41a1,1,0,0,0,.71-.7.9.9,0,0,0,0-.25s0-.3,0-.48l0-.64-.18-2.55-.67-10.2-.17-2.55,0-.64,0-.46c0-.19,0-.38,0-.57a8.29,8.29,0,0,1,2.94-6,8.46,8.46,0,0,1,2.93-1.62l.52-.15.3-.08,2.41-.63.6-.16.3-.08.54-.13a8.1,8.1,0,0,1,2.28-.16,8.36,8.36,0,0,1,7,4.95l4.13,9.35,2.06,4.68.52,1.17.26.58c.05.08,0,.11.08.16a1.13,1.13,0,0,0,.45.43,1.21,1.21,0,0,0,.64.14c.27,0,.2,0,1.23-.44l4.69-2,9.39-4,9.39-4,2.35-1,1.17-.51.35-.16.18-.1a1.55,1.55,0,0,0,.68-1.44,1.69,1.69,0,0,0-.1-.43l-.5-1.17-1-2.35-2-4.7-2-4.7-1-2.35-.5-1.17-.25-.59a8.87,8.87,0,0,1-.33-.9,7.46,7.46,0,0,1,1.94-7.43,8,8,0,0,1,.75-.64c.14-.1.26-.19.36-.26l.43-.27a7.3,7.3,0,0,1,9,1.38l1.74,1.87,3.48,3.74,7,7.49.21.22.13.12a3.21,3.21,0,0,0,.27.23,2.9,2.9,0,0,0,.63.33,2.7,2.7,0,0,0,1.43.12,2.74,2.74,0,0,0,1.32-.64l1.87-1.72,15-13.85,3.76-3.46,1.85-1.71a3.36,3.36,0,0,0,.93-1.58,3.41,3.41,0,0,0,0-1.86,3.32,3.32,0,0,0-.39-.86,5.24,5.24,0,0,0-.68-.82l-3.49-3.73-7-7.46-1.75-1.87c-.3-.32-.57-.59-.91-1a5.88,5.88,0,0,1-.76-1.29,5.46,5.46,0,0,1-.38-2.92,5.61,5.61,0,0,1,1.15-2.64l.74-1a5.9,5.9,0,0,1,1-1.07,5.41,5.41,0,0,1,5.5-.79c.85.39,1.55.76,2.33,1.15l9.14,4.57,4.58,2.26,2.28,1.11a4.23,4.23,0,0,0,2.26.35,4.39,4.39,0,0,0,3.54-2.72l2.27-4.58.13.5q-2.15-1.49-4.19-3.12C428.84,292.79,427.51,291.67,426.24,290.44Zm.49-.5c1.24,1.17,2.57,2.28,3.92,3.35s2.75,2.08,4.18,3.05l.28.19-.15.31-2.23,4.6a5.49,5.49,0,0,1-1.64,2.17,5.17,5.17,0,0,1-5.28.65l-2.32-1.1-4.61-2.2-9.25-4.36c-.76-.35-1.57-.76-2.28-1.06a4.06,4.06,0,0,0-4.12.68,4.48,4.48,0,0,0-.72.81l-.73,1.06a4,4,0,0,0-.52,4.08,4.27,4.27,0,0,0,.57.89c.21.24.55.57.85.86l1.81,1.8,7.25,7.21,3.62,3.61a7.62,7.62,0,0,1,1,1.12,5.69,5.69,0,0,1,.72,1.43,5.94,5.94,0,0,1-1.31,6l-1.83,1.84-3.61,3.62L395.89,345l-1.82,1.82a6.77,6.77,0,0,1-6.75,1.59,7,7,0,0,1-1.66-.78,7.34,7.34,0,0,1-.74-.56l-.34-.31-.24-.23-7.27-7.18-3.64-3.59-1.82-1.8a2.26,2.26,0,0,0-1.07-.61,2.13,2.13,0,0,0-1.13,0,2.1,2.1,0,0,0-.49.24l-.11.08a1.33,1.33,0,0,0-.15.12,2.77,2.77,0,0,0-.21.2,2,2,0,0,0-.42,2l4.17,9,2.16,4.63,1.08,2.32.54,1.16a8,8,0,0,1,.61,2,7.86,7.86,0,0,1-3.06,7.53,8.46,8.46,0,0,1-.9.58l-.47.24-.32.15-1.16.53-2.33,1.06-9.3,4.23-9.3,4.23-4.65,2.12c-.44.19-.62.31-1.45.61a8.16,8.16,0,0,1-2.18.44,8.23,8.23,0,0,1-7.55-3.89,9.55,9.55,0,0,1-.52-1l-.26-.58-.53-1.16-2.11-4.66-4.21-9.31a1.1,1.1,0,0,0-.93-.64.83.83,0,0,0-.26,0l-.08,0-.32.09-.63.17-2.53.69-.32.09-.09,0-.15.06a1,1,0,0,0-.25.17,1,1,0,0,0-.29.45.87.87,0,0,0,0,.24s0,0,0,.06v.18l0,.64.19,2.55.76,10.19.18,2.55,0,.64c0,.24,0,.33,0,.79a8.39,8.39,0,0,1-.25,2.28,8.48,8.48,0,0,1-6.2,6.15,7.53,7.53,0,0,1-1.12.19l-.28,0h-.17l-.32,0-1.27.09-2.55.18-5.1.35-10.2.71L284,386l-.64,0a10.39,10.39,0,0,1-1.1,0,8.67,8.67,0,0,1-2.24-.43,8.49,8.49,0,0,1-3.73-2.53,8.37,8.37,0,0,1-1.9-4.12c-.12-.9-.1-1.13-.14-1.6l-.08-1.28-.66-10.2-.31-4.71a1.09,1.09,0,0,0-.71-.85l-.14,0h-.07l-.33,0-1.3-.15-1.3-.15a1.76,1.76,0,0,0-.32,0,1.16,1.16,0,0,0-.92.75l-2.84,9.63-1.44,4.9-.36,1.23,0,.15-.08.26-.18.52a8.66,8.66,0,0,1-.49,1,8.14,8.14,0,0,1-7.33,4.09,8,8,0,0,1-1.09-.11c-.18,0-.36-.07-.54-.11l-.47-.12L252,381.8l-4.91-1.43-19.63-5.71-2.45-.71-.61-.18c-.21-.06-.37-.1-.76-.24a7.9,7.9,0,0,1-5.3-8.43,7.19,7.19,0,0,1,.2-1.05c0-.2.08-.29.11-.39l.09-.31.36-1.23.72-2.45,1.44-4.9,1.45-4.9.72-2.44a1.61,1.61,0,0,0,0-.86,1.58,1.58,0,0,0-.43-.75,1.59,1.59,0,0,0-.35-.26l-1.11-.58-.33-.17c-.07,0-.14-.06-.21-.07a1.41,1.41,0,0,0-.45-.06,1.72,1.72,0,0,0-.89.25,1.83,1.83,0,0,0-.36.29,1,1,0,0,0-.08.09l0,0-.09.12-.38.51L217.24,348l-3,4.1-6.13,8.19a7.55,7.55,0,0,1-7.13,2.94,7.71,7.71,0,0,1-1.93-.56,8,8,0,0,1-.89-.47l-.42-.28-.28-.21-2.05-1.52-8.21-6.09L179,348l-4.1-3.05-1-.76c-.35-.27-.63-.45-1.18-.92a7,7,0,0,1-2.1-6.89,7.11,7.11,0,0,1,.71-1.74c.15-.25.36-.56.49-.74l.38-.51,3.07-4.08,6.15-8.17,1.54-2,.38-.51a3.38,3.38,0,0,0,.21-.32,2.53,2.53,0,0,0,.28-.7,2.82,2.82,0,0,0,0-1.51,3,3,0,0,0-.32-.69,2.56,2.56,0,0,0-.23-.3c-.07-.09-.27-.3-.4-.44l-.87-1c-.29-.32-.62-.68-.76-.81a2.89,2.89,0,0,0-1.39-.7,3,3,0,0,0-1.59.12,3.38,3.38,0,0,0-.37.16c-.13.08-.2.11-.41.25l-1.07.7L167.78,319l-4.28,2.8-2.14,1.4a6.16,6.16,0,0,1-8.68-1.85l-2.81-4.27-5.67-8.51-5.67-8.5-1.42-2.13-.71-1.06c-.24-.36-.46-.67-.75-1.16a5.86,5.86,0,0,1,.28-6,6,6,0,0,1,1-1.18c.19-.17.43-.33.61-.46l.53-.35,2.13-1.42,4.25-2.84,8.5-5.68,1.06-.71a3.93,3.93,0,0,0,.78-.65,3.67,3.67,0,0,0,.89-1.74,3.5,3.5,0,0,0-.17-1.94c-.05-.14-.13-.33-.23-.53l-.26-.59-.52-1.18a3.64,3.64,0,0,0-4-2.18l-.24,0-.31.08-.62.16-2.48.62-9.91,2.5-5,1.25-1.24.32a5.89,5.89,0,0,1-4.6-.73l-1.54-1,1.52-1c3.73-2.53,7.34-5.19,10.79-8.07s6.72-6,10.34-8.88a44.81,44.81,0,0,1,12.16-7,49.46,49.46,0,0,1,13.72-3.1l1.5-.12.46,1.5a116,116,0,0,0,15.18,31.37,113,113,0,0,0,10.92,13.57A124.38,124.38,0,0,0,214,301.49,119.73,119.73,0,0,0,244,318.81a119.06,119.06,0,0,0,33.69,7.76l4.33.26,4.34.08c2.89,0,5.8,0,8.68-.31l4.34-.33a20.93,20.93,0,0,0,2.16-.26l2.15-.32,4.31-.63c1.42-.28,2.83-.62,4.26-.91a115.34,115.34,0,0,0,32.57-12.33,116.77,116.77,0,0,0,27.49-21.74,115.14,115.14,0,0,0,19.81-29.16l.23-.49.5.15a41.9,41.9,0,0,1,10.43,4.76,46.14,46.14,0,0,1,8.81,7.29c2.61,2.78,4.91,5.81,7.24,8.78A92.14,92.14,0,0,0,426.74,289.95Z" transform="translate(-31.95 -39.12)"/></svg>